HIERARCHY
ROOT SpineBase
{
  OFFSET 0.000000 0.000000 0.000000
  CHANNELS 6 Xposition Yposition Zposition Zrotation Xrotation Yrotation
  JOINT SpineMid
  {
    OFFSET 0.000000 30.482801 0.000000
    CHANNELS 3 Zrotation Xrotation Yrotation
    JOINT SpineShoulder
    {
      OFFSET 0.030328 22.646253 -0.796643
      CHANNELS 3 Zrotation Xrotation Yrotation
      JOINT Neck
      {
        OFFSET 0.024451 7.489600 -0.596574
        CHANNELS 3 Zrotation Xrotation Yrotation
        JOINT Head
        {
          OFFSET -3.745033 13.947701 -0.628363
          CHANNELS 3 Zrotation Xrotation Yrotation
          End Site
          {
            OFFSET 0 0 0
          }
        }
      }
      JOINT ShoulderLeft
      {
        OFFSET -16.936116 -3.901273 6.702027
        CHANNELS 3 Zrotation Xrotation Yrotation
        JOINT ElbowLeft
        {
          OFFSET -1.375535 -26.735706 0.856898
          CHANNELS 3 Zrotation Xrotation Yrotation
          JOINT WristLeft
          {
            OFFSET 2.531755 -22.021068 -6.415378
            CHANNELS 3 Zrotation Xrotation Yrotation
            JOINT HandLeft
            {
              OFFSET 1.964152 -5.865577 -1.726449
              CHANNELS 3 Zrotation Xrotation Yrotation
              JOINT HandTipLeft
              {
                OFFSET 0.303472 -7.216269 -1.601612
                CHANNELS 3 Zrotation Xrotation Yrotation
                End Site
                {
                  OFFSET 0 0 0
                }
              }
              JOINT ThumbLeft
              {
                OFFSET -2.643745 -1.489602 -2.431210
                CHANNELS 3 Zrotation Xrotation Yrotation
                End Site
                {
                  OFFSET 0 0 0
                }
              }
            }
          }
        }
      }
      JOINT ShoulderRight
      {
        OFFSET 15.100403 -2.756165 -9.223625
        CHANNELS 3 Zrotation Xrotation Yrotation
        JOINT ElbowRight
        {
          OFFSET 5.642047 -24.812142 -3.563332
          CHANNELS 3 Zrotation Xrotation Yrotation
          JOINT WristRight
          {
            OFFSET -5.473167 -20.533167 -5.291782
            CHANNELS 3 Zrotation Xrotation Yrotation
            JOINT HandRight
            {
              OFFSET -2.948351 -1.350357 0.764031
              CHANNELS 3 Zrotation Xrotation Yrotation
              JOINT HandTipRight
              {
                OFFSET -3.248865 -8.303331 -2.586924
                CHANNELS 3 Zrotation Xrotation Yrotation
                End Site
                {
                  OFFSET 0 0 0
                }
              }
              JOINT ThumbRight
              {
                OFFSET -1.516663 2.037566 -2.781786
                CHANNELS 3 Zrotation Xrotation Yrotation
                End Site
                {
                  OFFSET 0 0 0
                }
              }
            }
          }
        }
      }
    }
  }
  JOINT HipLeft
  {
    OFFSET -7.242915 0.091251 -0.428740
    CHANNELS 3 Zrotation Xrotation Yrotation
    JOINT KneeLeft
    {
      OFFSET 4.213819 -35.003523 7.553544
      CHANNELS 3 Zrotation Xrotation Yrotation
      JOINT AnkleLeft
      {
        OFFSET 7.437640 -30.604866 7.829748
        CHANNELS 3 Zrotation Xrotation Yrotation
        JOINT FootLeft
        {
          OFFSET -4.438401 -3.711588 -12.806149
          CHANNELS 3 Zrotation Xrotation Yrotation
          End Site
          {
            OFFSET 0 0 0
          }
        }
      }
    }
  }
  JOINT HipRight
  {
    OFFSET 7.298024 1.408449 -6.667024
    CHANNELS 3 Zrotation Xrotation Yrotation
    JOINT KneeRight
    {
      OFFSET 7.729551 -31.538998 -3.592800
      CHANNELS 3 Zrotation Xrotation Yrotation
      JOINT AnkleRight
      {
        OFFSET 4.804262 -34.676020 6.547642
        CHANNELS 3 Zrotation Xrotation Yrotation
        JOINT FootRight
        {
          OFFSET -4.581326 -3.661477 -12.783668
          CHANNELS 3 Zrotation Xrotation Yrotation
          End Site
          {
            OFFSET 0 0 0
          }
        }
      }
    }
  }
}
MOTION
Frames: 13
Frame Time: 0.033333
-4.176497 77.025762 357.655632 -0.000000 0.000000 23.220070 -0.000000 0.000000 -23.220070 -0.000000 0.000000 0.000000 -0.000000 0.000000 0.000000 0.000000 0.000000 0.000000 -0.000000 0.000000 0.000000 -0.000000 0.000000 0.000000 -0.000000 0.000000 0.000000 -0.000000 0.000000 0.000000 0.000000 0.000000 0.000000 0.000000 0.000000 0.000000 -0.000000 0.000000 0.000000 -0.000000 0.000000 0.000000 -0.000000 0.000000 0.000000 -0.000000 0.000000 0.000000 0.000000 0.000000 0.000000 0.000000 0.000000 0.000000 -0.000000 0.000000 -23.220070 -0.000000 0.000000 0.000000 -0.000000 0.000000 0.000000 0.000000 0.000000 0.000000 -0.000000 0.000000 -23.220070 -0.000000 0.000000 0.000000 -0.000000 0.000000 0.000000 0.000000 0.000000 0.000000
-4.103850 77.012742 357.397397 -0.389212 -0.463997 23.323030 0.541116 0.271975 -23.325890 -0.000000 0.000000 0.000000 -0.000000 0.000000 0.000000 0.000000 0.000000 0.000000 -0.000000 0.000000 0.000000 -0.000000 0.000000 0.000000 0.476734 1.697913 0.418809 -0.997201 -3.626948 -0.428746 0.000000 0.000000 0.000000 0.000000 0.000000 0.000000 -0.000000 0.000000 0.000000 -0.000000 0.000000 0.000000 7.510648 0.310235 4.158677 -6.267801 0.835852 -4.819426 0.000000 0.000000 0.000000 0.000000 0.000000 0.000000 0.541116 0.271975 -23.325890 -0.000000 0.000000 0.000000 -0.000000 0.000000 0.000000 0.000000 0.000000 0.000000 0.541116 0.271975 -23.325890 -0.000000 0.000000 0.000000 -0.000000 0.000000 0.000000 0.000000 0.000000 0.000000
-3.980098 77.007630 357.098910 -0.738147 -0.859150 23.405678 -0.087013 0.023769 -23.438538 -0.012345 0.001951 -0.035970 0.838826 0.870879 0.057635 0.000000 0.000000 0.000000 0.186266 -0.013133 0.087009 -0.149715 0.227153 0.137232 1.605862 3.554870 0.539346 -1.749724 -6.418387 -0.783579 0.000000 0.000000 0.000000 0.000000 0.000000 0.000000 -0.140219 0.432246 0.110043 1.266869 1.526554 -0.413565 13.270910 0.243742 7.270371 -11.015536 1.484118 -8.122124 0.000000 0.000000 0.000000 0.000000 0.000000 0.000000 1.018728 0.495153 -23.415614 -0.686261 -0.721605 -0.355204 0.681829 0.725794 0.346564 0.000000 0.000000 0.000000 1.018728 0.495153 -23.415614 -0.000000 0.000000 0.000000 -0.000000 0.000000 0.000000 0.000000 0.000000 0.000000
-3.805243 77.010428 356.760171 -1.047077 -1.185765 23.469147 -0.113532 0.034945 -23.518211 -0.014319 0.004511 -0.050405 1.177601 1.196249 0.077671 0.000000 0.000000 0.000000 0.246729 -0.043556 0.120837 -0.198605 0.354892 0.200670 2.134689 4.596239 0.660558 -2.254842 -8.439501 -1.059264 0.000000 0.000000 0.000000 0.000000 0.000000 0.000000 -0.175009 0.569784 0.151098 1.686380 1.965006 -0.509516 18.020210 1.212381 8.652737 -14.667654 1.778337 -10.160738 0.000000 0.000000 0.000000 0.000000 0.000000 0.000000 1.432775 0.670447 -23.488366 -1.009553 -1.144159 -0.546199 0.998803 1.153555 0.526063 0.000000 0.000000 0.000000 1.432775 0.670447 -23.488366 -0.000000 0.000000 0.000000 -0.000000 0.000000 0.000000 0.000000 0.000000 0.000000
-3.579282 77.021134 356.381181 -1.316223 -1.444095 23.514313 -0.128620 0.045558 -23.578361 -0.013451 0.008043 -0.062519 1.463003 1.448433 0.093415 0.000000 0.000000 0.000000 0.285704 -0.089407 0.148537 -0.229051 0.493608 0.259962 2.509861 5.244263 0.717583 -2.504674 -9.721063 -1.249244 0.000000 0.000000 0.000000 0.000000 0.000000 0.000000 -0.188285 0.654535 0.181494 1.963897 2.189068 -0.528990 21.863418 2.372213 8.861683 -17.750640 1.643223 -11.095637 0.000000 0.000000 0.000000 0.000000 0.000000 0.000000 1.783229 0.798616 -23.543330 -1.320115 -1.606780 -0.746166 1.299603 1.623414 0.709240 0.000000 0.000000 0.000000 1.783229 0.798616 -23.543330 -0.000000 0.000000 0.000000 -0.000000 0.000000 0.000000 0.000000 0.000000 0.000000
-3.302217 77.039749 355.961938 -1.545758 -1.634316 23.541804 -0.132222 0.055556 -23.618962 -0.009718 0.012485 -0.072336 1.695245 1.627538 0.105772 0.000000 0.000000 0.000000 0.303313 -0.150540 0.170278 -0.240339 0.644276 0.314648 2.738490 5.531406 0.722470 -2.490618 -10.273575 -1.348560 0.000000 0.000000 0.000000 0.000000 0.000000 0.000000 -0.181058 0.686231 0.200551 2.100268 2.199530 -0.471043 25.041916 3.605567 8.118107 -20.772298 1.021863 -11.003457 0.000000 0.000000 0.000000 0.000000 0.000000 0.000000 2.070075 0.880248 -23.579756 -1.618336 -2.108598 -0.955088 1.584071 2.134454 0.895793 0.000000 0.000000 0.000000 2.070075 0.880248 -23.579756 -0.000000 0.000000 0.000000 -0.000000 0.000000 0.000000 0.000000 0.000000 0.000000
-2.931264 77.074799 355.467819 -1.749593 -1.789930 23.541030 -0.106073 0.068555 -23.629557 0.002702 0.021073 -0.079343 1.867167 1.753044 0.114593 0.000000 0.000000 0.000000 0.338989 -0.157304 0.184823 -0.369338 0.759871 0.394222 2.738379 5.449069 0.708337 -1.376932 -8.551777 -1.379294 0.000000 0.000000 0.000000 0.000000 0.000000 0.000000 -0.048763 0.746417 0.204218 2.521571 1.470156 -0.358270 26.624935 5.168885 6.020526 -23.060011 1.831172 -10.523663 0.000000 0.000000 0.000000 0.000000 0.000000 0.000000 2.319137 0.941284 -23.587417 -2.025000 -2.818131 -1.250389 1.965496 2.859932 1.151504 0.000000 0.000000 0.000000 1.617764 0.308021 -23.746699 0.386921 0.862083 0.164019 -0.000000 0.000000 0.000000 0.000000 0.000000 0.000000
-2.505633 77.108794 354.938559 -1.863958 -1.801791 23.615283 -0.047287 0.082253 -23.708315 0.027825 0.037522 -0.080477 1.907998 1.712776 0.118025 0.000000 0.000000 0.000000 0.096854 -0.454512 0.190937 -0.084820 1.201539 0.414063 2.522501 4.321421 0.460703 -0.903048 -9.317890 -1.215913 0.000000 0.000000 0.000000 0.000000 0.000000 0.000000 -0.068865 0.608148 0.192410 1.179869 0.540437 0.312880 34.696117 7.987647 0.914172 -32.833833 -4.204264 -6.428936 0.000000 0.000000 0.000000 0.000000 0.000000 0.000000 1.521770 1.352871 -23.858793 -1.289478 -3.534971 -1.293044 2.226629 3.539453 1.365630 0.000000 0.000000 0.000000 1.268033 0.187432 -23.839653 0.280500 0.322899 -0.018616 0.492555 0.801597 0.200767 0.000000 0.000000 0.000000
-2.033663 77.151065 354.404702 -1.969752 -1.832524 23.513764 -0.032949 0.096219 -23.612157 0.047064 0.046559 -0.083422 1.986651 1.716266 0.123050 0.000000 0.000000 0.000000 0.017089 -0.568773 0.196729 -0.030328 1.341112 0.448896 2.440750 4.073774 0.417469 -0.598448 -8.469524 -1.171422 0.000000 0.000000 0.000000 0.000000 0.000000 0.000000 -0.181397 0.513700 0.205043 0.809098 0.094309 0.597169 35.678358 8.382452 -0.057570 -33.846840 -8.727040 -4.446500 0.000000 0.000000 0.000000 0.000000 0.000000 0.000000 1.221777 1.392341 -23.850719 -1.074809 -4.007739 -1.397301 2.385688 4.139301 1.536918 0.000000 0.000000 0.000000 0.756769 0.156257 -23.737178 0.650146 0.211124 -0.110843 0.680932 1.181811 0.285617 0.000000 0.000000 0.000000
-1.598196 77.173232 353.898709 -2.021574 -1.798139 23.465562 -0.022742 0.115364 -23.565650 0.077804 0.056459 -0.083595 2.006022 1.650465 0.125668 0.000000 0.000000 0.000000 -0.046808 -0.726783 0.198218 0.013067 1.353705 0.449415 2.277940 4.126122 0.472206 -0.403952 -9.828181 -1.283523 0.000000 0.000000 0.000000 0.000000 0.000000 0.000000 -0.311971 0.272031 0.185993 1.387803 0.214786 0.512941 31.748231 7.815278 -0.329874 -29.681871 -9.886950 -2.991113 0.000000 0.000000 0.000000 0.000000 0.000000 0.000000 0.851171 1.334981 -23.894899 -0.855838 -4.278901 -1.452949 2.519236 4.587077 1.667105 0.000000 0.000000 0.000000 0.126063 0.040465 -23.699042 1.188647 0.375053 -0.137136 0.723983 1.344287 0.314890 0.000000 0.000000 0.000000
-1.297747 77.187353 353.478103 -2.087563 -1.680392 23.354381 -0.003870 0.082383 -23.455629 0.057884 0.037590 -0.086852 2.061449 1.574539 0.130900 0.000000 0.000000 0.000000 0.005915 -0.711199 0.197593 -0.159104 1.211689 0.502410 2.738111 3.704585 0.175405 -1.130812 -9.490981 -0.996312 0.000000 0.000000 0.000000 0.000000 0.000000 0.000000 -0.435458 -0.088842 0.145615 1.160203 0.502535 0.659724 30.765183 7.597033 -1.225643 -29.184713 -10.615749 -1.668282 0.000000 0.000000 0.000000 0.000000 0.000000 0.000000 0.538012 1.071520 -23.863647 -0.742214 -4.262385 -1.464050 2.643246 4.827316 1.747664 0.000000 0.000000 0.000000 -0.369225 -0.231771 -23.624504 1.659041 0.601874 -0.116971 0.664190 1.448641 0.318238 0.000000 0.000000 0.000000
-1.172432 77.210655 353.162277 -2.264221 -1.652929 23.372402 -0.038032 -0.006561 -23.483517 0.001067 -0.008383 -0.098803 1.619892 0.354309 -0.233521 0.000000 0.000000 0.000000 -0.014825 -0.750631 0.213279 -0.283812 1.394311 0.627088 3.850401 2.985566 -0.401211 -1.491030 -7.058684 -0.511329 0.000000 0.000000 0.000000 0.000000 0.000000 0.000000 -0.328239 -0.224167 0.119781 1.201049 0.771784 0.715283 31.081189 7.826619 -2.556170 -30.693843 -11.781107 -0.296875 0.000000 0.000000 0.000000 0.000000 0.000000 0.000000 0.681289 0.934911 -23.889440 -0.897371 -4.373982 -1.542502 2.779705 4.986836 1.812240 0.000000 0.000000 0.000000 -0.516678 -0.574297 -23.719851 1.832661 0.880704 -0.068196 0.663477 1.518366 0.327423 0.000000 0.000000 0.000000
-1.254124 77.345425 352.945297 -2.683954 -1.737311 23.537440 0.061866 -0.123602 -23.669934 -0.036760 -0.029001 -0.113813 1.404905 0.135538 -0.338261 0.000000 0.000000 0.000000 -0.019398 -0.859052 0.237638 -0.708986 1.838869 0.894719 5.977817 1.253969 -1.555764 -3.182378 -2.653767 0.620275 0.000000 0.000000 0.000000 0.000000 0.000000 0.000000 0.115544 -0.321469 0.055726 1.067837 1.121202 0.780811 28.115659 7.191198 -2.350775 -25.889424 -10.310089 -0.412418 0.000000 0.000000 0.000000 0.000000 0.000000 0.000000 1.345434 0.820279 -24.009409 -1.181421 -4.493249 -1.628900 2.825076 5.030928 1.831625 0.000000 0.000000 0.000000 -0.156623 -1.123949 -24.036560 1.864704 1.286624 0.075669 0.494118 1.560655 0.303408 0.000000 0.000000 0.000000
